<mxfile host="app.diagrams.net" modified="2021-05-22T03:08:50.394Z" agent="5.0 (Macintosh; Intel Mac OS X 10_12_6) AppleWebKit/537.36 (KHTML, like Gecko) Chrome/89.0.4389.114 Safari/537.36" etag="B9v7uP0aJrAduwLCzMN5" version="14.6.10" type="github">
  <diagram id="4Joo1i-Ju_F4ByNTrXHo" name="Page-1">
    <mxGraphModel dx="1049" dy="634" grid="1" gridSize="10" guides="1" tooltips="1" connect="1" arrows="1" fold="1" page="1" pageScale="1" pageWidth="850" pageHeight="1100" math="0" shadow="0">
      <root>
        <mxCell id="0" />
        <mxCell id="1" parent="0" />
        <mxCell id="axh8pNVTcihHNyuKykq5-4" value="" style="ellipse;whiteSpace=wrap;html=1;movable=0;resizable=0;rotatable=0;deletable=0;editable=0;connectable=0;" vertex="1" parent="1">
          <mxGeometry x="230" y="100" width="120" height="80" as="geometry" />
        </mxCell>
        <mxCell id="axh8pNVTcihHNyuKykq5-3" value="Asset Management System (AMS)" style="rounded=0;whiteSpace=wrap;html=1;align=left;verticalAlign=top;" vertex="1" parent="1">
          <mxGeometry x="120" y="40" width="650" height="1000" as="geometry" />
        </mxCell>
        <mxCell id="axh8pNVTcihHNyuKykq5-1" value="Employee" style="shape=umlActor;verticalLabelPosition=bottom;verticalAlign=top;html=1;outlineConnect=0;" vertex="1" parent="1">
          <mxGeometry x="50" y="280" width="40" height="90" as="geometry" />
        </mxCell>
        <mxCell id="axh8pNVTcihHNyuKykq5-2" value="Staff" style="shape=umlActor;verticalLabelPosition=bottom;verticalAlign=top;html=1;outlineConnect=0;" vertex="1" parent="1">
          <mxGeometry x="780" y="295" width="50" height="90" as="geometry" />
        </mxCell>
        <mxCell id="axh8pNVTcihHNyuKykq5-5" value="Loaner Request Filed" style="ellipse;whiteSpace=wrap;html=1;aspect=fixed;" vertex="1" parent="1">
          <mxGeometry x="325" y="90" width="100" height="100" as="geometry" />
        </mxCell>
        <mxCell id="axh8pNVTcihHNyuKykq5-6" value="device chosen from inventory" style="ellipse;whiteSpace=wrap;html=1;aspect=fixed;" vertex="1" parent="1">
          <mxGeometry x="550" y="50" width="100" height="100" as="geometry" />
        </mxCell>
        <mxCell id="axh8pNVTcihHNyuKykq5-7" value="Request received" style="ellipse;whiteSpace=wrap;html=1;aspect=fixed;" vertex="1" parent="1">
          <mxGeometry x="400" y="210" width="90" height="90" as="geometry" />
        </mxCell>
        <mxCell id="axh8pNVTcihHNyuKykq5-8" value="Device prepared" style="ellipse;whiteSpace=wrap;html=1;aspect=fixed;" vertex="1" parent="1">
          <mxGeometry x="560" y="200" width="80" height="80" as="geometry" />
        </mxCell>
        <mxCell id="axh8pNVTcihHNyuKykq5-9" value="Create note in system" style="ellipse;whiteSpace=wrap;html=1;aspect=fixed;" vertex="1" parent="1">
          <mxGeometry x="560" y="310" width="80" height="80" as="geometry" />
        </mxCell>
        <mxCell id="axh8pNVTcihHNyuKykq5-10" value="Send notification for loaner pick up" style="ellipse;whiteSpace=wrap;html=1;aspect=fixed;" vertex="1" parent="1">
          <mxGeometry x="330" y="330" width="90" height="90" as="geometry" />
        </mxCell>
        <mxCell id="axh8pNVTcihHNyuKykq5-11" value="Return malfunctioning device" style="ellipse;whiteSpace=wrap;html=1;aspect=fixed;" vertex="1" parent="1">
          <mxGeometry x="330" y="450" width="90" height="90" as="geometry" />
        </mxCell>
        <mxCell id="axh8pNVTcihHNyuKykq5-12" value="Update Request status" style="ellipse;whiteSpace=wrap;html=1;aspect=fixed;" vertex="1" parent="1">
          <mxGeometry x="550" y="450" width="80" height="80" as="geometry" />
        </mxCell>
        <mxCell id="axh8pNVTcihHNyuKykq5-13" value="create ticket for malfunctioning device" style="ellipse;whiteSpace=wrap;html=1;aspect=fixed;" vertex="1" parent="1">
          <mxGeometry x="550" y="560" width="90" height="90" as="geometry" />
        </mxCell>
        <mxCell id="axh8pNVTcihHNyuKykq5-14" value="Send notification for fixed device pickup" style="ellipse;whiteSpace=wrap;html=1;aspect=fixed;" vertex="1" parent="1">
          <mxGeometry x="330" y="640" width="90" height="90" as="geometry" />
        </mxCell>
        <mxCell id="axh8pNVTcihHNyuKykq5-15" value="Return loaner device" style="ellipse;whiteSpace=wrap;html=1;aspect=fixed;" vertex="1" parent="1">
          <mxGeometry x="330" y="775" width="90" height="90" as="geometry" />
        </mxCell>
        <mxCell id="axh8pNVTcihHNyuKykq5-16" value="Update loaner status" style="ellipse;whiteSpace=wrap;html=1;aspect=fixed;" vertex="1" parent="1">
          <mxGeometry x="560" y="780" width="80" height="80" as="geometry" />
        </mxCell>
        <mxCell id="axh8pNVTcihHNyuKykq5-17" value="Pick up fixed device" style="ellipse;whiteSpace=wrap;html=1;aspect=fixed;" vertex="1" parent="1">
          <mxGeometry x="385" y="890" width="90" height="90" as="geometry" />
        </mxCell>
        <mxCell id="axh8pNVTcihHNyuKykq5-30" value="" style="endArrow=none;html=1;rounded=0;edgeStyle=orthogonalEdgeStyle;exitX=0.5;exitY=0.5;exitDx=0;exitDy=0;exitPerimeter=0;entryX=0;entryY=0.5;entryDx=0;entryDy=0;" edge="1" parent="1" source="axh8pNVTcihHNyuKykq5-1" target="axh8pNVTcihHNyuKykq5-5">
          <mxGeometry width="50" height="50" relative="1" as="geometry">
            <mxPoint x="180" y="310" as="sourcePoint" />
            <mxPoint x="230" y="260" as="targetPoint" />
          </mxGeometry>
        </mxCell>
        <mxCell id="axh8pNVTcihHNyuKykq5-31" value="" style="endArrow=none;html=1;rounded=0;edgeStyle=orthogonalEdgeStyle;entryX=0;entryY=0.5;entryDx=0;entryDy=0;" edge="1" parent="1" source="axh8pNVTcihHNyuKykq5-1" target="axh8pNVTcihHNyuKykq5-11">
          <mxGeometry width="50" height="50" relative="1" as="geometry">
            <mxPoint x="400" y="360" as="sourcePoint" />
            <mxPoint x="450" y="310" as="targetPoint" />
            <Array as="points">
              <mxPoint x="170" y="370" />
              <mxPoint x="170" y="495" />
            </Array>
          </mxGeometry>
        </mxCell>
        <mxCell id="axh8pNVTcihHNyuKykq5-32" value="" style="endArrow=none;html=1;rounded=0;edgeStyle=orthogonalEdgeStyle;entryX=0;entryY=0.5;entryDx=0;entryDy=0;" edge="1" parent="1" source="axh8pNVTcihHNyuKykq5-1" target="axh8pNVTcihHNyuKykq5-15">
          <mxGeometry width="50" height="50" relative="1" as="geometry">
            <mxPoint x="400" y="670" as="sourcePoint" />
            <mxPoint x="450" y="620" as="targetPoint" />
            <Array as="points">
              <mxPoint x="70" y="570" />
              <mxPoint x="170" y="570" />
              <mxPoint x="170" y="820" />
            </Array>
          </mxGeometry>
        </mxCell>
        <mxCell id="axh8pNVTcihHNyuKykq5-33" value="" style="endArrow=none;html=1;rounded=0;edgeStyle=orthogonalEdgeStyle;entryX=0;entryY=0.5;entryDx=0;entryDy=0;" edge="1" parent="1" source="axh8pNVTcihHNyuKykq5-1" target="axh8pNVTcihHNyuKykq5-17">
          <mxGeometry width="50" height="50" relative="1" as="geometry">
            <mxPoint x="310" y="760" as="sourcePoint" />
            <mxPoint x="360" y="710" as="targetPoint" />
            <Array as="points">
              <mxPoint x="70" y="935" />
            </Array>
          </mxGeometry>
        </mxCell>
        <mxCell id="axh8pNVTcihHNyuKykq5-34" value="includes" style="endArrow=open;endSize=12;dashed=1;html=1;rounded=0;edgeStyle=orthogonalEdgeStyle;exitX=1;exitY=0.5;exitDx=0;exitDy=0;" edge="1" parent="1" source="axh8pNVTcihHNyuKykq5-5" target="axh8pNVTcihHNyuKykq5-6">
          <mxGeometry width="160" relative="1" as="geometry">
            <mxPoint x="250" y="350" as="sourcePoint" />
            <mxPoint x="410" y="350" as="targetPoint" />
          </mxGeometry>
        </mxCell>
        <mxCell id="axh8pNVTcihHNyuKykq5-35" value="includes" style="endArrow=open;endSize=12;dashed=1;html=1;rounded=0;edgeStyle=orthogonalEdgeStyle;" edge="1" parent="1" source="axh8pNVTcihHNyuKykq5-7" target="axh8pNVTcihHNyuKykq5-8">
          <mxGeometry width="160" relative="1" as="geometry">
            <mxPoint x="250" y="350" as="sourcePoint" />
            <mxPoint x="410" y="350" as="targetPoint" />
          </mxGeometry>
        </mxCell>
        <mxCell id="axh8pNVTcihHNyuKykq5-36" value="includes" style="endArrow=open;endSize=12;dashed=1;html=1;rounded=0;edgeStyle=orthogonalEdgeStyle;exitX=0.5;exitY=1;exitDx=0;exitDy=0;entryX=0;entryY=0.5;entryDx=0;entryDy=0;" edge="1" parent="1" source="axh8pNVTcihHNyuKykq5-7" target="axh8pNVTcihHNyuKykq5-9">
          <mxGeometry width="160" relative="1" as="geometry">
            <mxPoint x="250" y="350" as="sourcePoint" />
            <mxPoint x="410" y="350" as="targetPoint" />
          </mxGeometry>
        </mxCell>
        <mxCell id="axh8pNVTcihHNyuKykq5-37" value="includes" style="endArrow=open;endSize=12;dashed=1;html=1;rounded=0;edgeStyle=orthogonalEdgeStyle;" edge="1" parent="1" source="axh8pNVTcihHNyuKykq5-11" target="axh8pNVTcihHNyuKykq5-12">
          <mxGeometry width="160" relative="1" as="geometry">
            <mxPoint x="250" y="350" as="sourcePoint" />
            <mxPoint x="410" y="350" as="targetPoint" />
          </mxGeometry>
        </mxCell>
        <mxCell id="axh8pNVTcihHNyuKykq5-38" value="includes" style="endArrow=open;endSize=12;dashed=1;html=1;rounded=0;edgeStyle=orthogonalEdgeStyle;exitX=0.5;exitY=1;exitDx=0;exitDy=0;entryX=0;entryY=0.5;entryDx=0;entryDy=0;" edge="1" parent="1" source="axh8pNVTcihHNyuKykq5-11" target="axh8pNVTcihHNyuKykq5-13">
          <mxGeometry width="160" relative="1" as="geometry">
            <mxPoint x="250" y="350" as="sourcePoint" />
            <mxPoint x="410" y="350" as="targetPoint" />
          </mxGeometry>
        </mxCell>
        <mxCell id="axh8pNVTcihHNyuKykq5-39" value="includes" style="endArrow=open;endSize=12;dashed=1;html=1;rounded=0;edgeStyle=orthogonalEdgeStyle;exitX=1;exitY=0.5;exitDx=0;exitDy=0;" edge="1" parent="1" source="axh8pNVTcihHNyuKykq5-15" target="axh8pNVTcihHNyuKykq5-16">
          <mxGeometry width="160" relative="1" as="geometry">
            <mxPoint x="250" y="710" as="sourcePoint" />
            <mxPoint x="410" y="710" as="targetPoint" />
          </mxGeometry>
        </mxCell>
      </root>
    </mxGraphModel>
  </diagram>
</mxfile>
